<svg width="38" height="42" viewBox="0 0 38 42" fill="none" xmlns="http://www.w3.org/2000/svg">
<rect width="38" height="42" rx="6" fill="#7C6A46" fill-opacity="0.6"/>
<rect x="2" y="2" width="34" height="38" rx="6" fill="#FAFAFA"/>
<rect x="10" y="10" width="18" height="2" fill="#7C6A46" fill-opacity="0.79"/>
<path d="M10 28H28V30H10V28Z" fill="#7C6A46" fill-opacity="0.79"/>
<rect x="10" y="22" width="18" height="2" fill="#7C6A46" fill-opacity="0.79"/>
<path d="M10 16H28V18H19H10V16Z" fill="#7C6A46" fill-opacity="0.79"/>
<rect width="38" height="42" rx="6" fill="#646464"/>
<rect x="2" y="2" width="34" height="38" rx="6" fill="#FAFAFA"/>
<path d="M10 22H28V24H10V22Z" fill="#646464"/>
<path d="M10 22H28V24H10V22Z" fill="#646464"/>
<path d="M10 22H28V24H10V22Z" fill="#646464"/>
<path d="M10 16H28V18H10V16Z" fill="#646464"/>
<path d="M10 22H28V24H10V22Z" fill="#646464"/>
<path d="M10 22H28V24H10V22Z" fill="#646464"/>
<path d="M10 10H28V12H10V10Z" fill="#646464"/>
<path d="M10 10H28V12H10V10Z" fill="#646464"/>
<path d="M10 10H28V12H10V10Z" fill="#646464"/>
<path d="M10 10H28V12H10V10Z" fill="#646464"/>
<path d="M10 10H28V12H10V10Z" fill="#646464"/>
<path d="M10 28H28V30H10V28Z" fill="#646464"/>
</svg>
