<svg width="37" height="41" viewBox="0 0 37 41" fill="none" xmlns="http://www.w3.org/2000/svg">
<path d="M4.57143 36.1825H11.4286V22.4682H25.1429V36.1825H32V15.611L18.2857 5.32533L4.57143 15.611V36.1825ZM4.57143 40.7539C3.31429 40.7539 2.23772 40.3059 1.34172 39.4099C0.445718 38.5139 -0.00151993 37.4381 3.88067e-06 36.1825V15.611C3.88067e-06 14.8872 0.162289 14.2015 0.486861 13.5539C0.811432 12.9063 1.25867 12.373 1.82858 11.9539L15.5429 1.66819C15.9619 1.36343 16.4 1.13486 16.8571 0.982477C17.3143 0.830096 17.7905 0.753906 18.2857 0.753906C18.781 0.753906 19.2571 0.830096 19.7143 0.982477C20.1714 1.13486 20.6095 1.36343 21.0286 1.66819L34.7429 11.9539C35.3143 12.373 35.7623 12.9063 36.0869 13.5539C36.4114 14.2015 36.5729 14.8872 36.5714 15.611V36.1825C36.5714 37.4396 36.1234 38.5162 35.2274 39.4122C34.3314 40.3082 33.2556 40.7554 32 40.7539H20.5714V27.0396H16V40.7539H4.57143Z" fill="#646464"/>
</svg>